<svg width="20" height="20" viewBox="0 0 20 20" fill="none" xmlns="http://www.w3.org/2000/svg">
<g clip-path="url(#clip0_183_46)">
<path d="M7.96331 8.99111V12.5472M3.82353 7.09442V10.5177C3.82503 11.0678 4.04421 11.5949 4.43317 11.9839C4.82214 12.3729 5.34926 12.592 5.89934 12.5935C6.44932 12.5922 6.97636 12.373 7.36511 11.9839C7.75386 11.5949 7.97265 11.0677 7.97361 10.5177V7.09493M9.29589 7.08618C9.29589 7.08618 10.4396 12.5704 13.6915 12.4772C14.9834 12.4412 16.196 11.5965 16.176 9.69523C16.1595 7.92721 14.9829 7.1042 13.5921 7.24214C9.85125 7.61478 10.1184 17.2768 10.1184 17.2768" stroke="black" stroke-width="2" stroke-linecap="round" stroke-linejoin="round"/>
<path d="M17.4632 0.478027H2.53676C1.3997 0.478027 0.477936 1.39979 0.477936 2.53685V17.4633C0.477936 18.6004 1.3997 19.5221 2.53676 19.5221H17.4632C18.6003 19.5221 19.5221 18.6004 19.5221 17.4633V2.53685C19.5221 1.39979 18.6003 0.478027 17.4632 0.478027Z" stroke="black" stroke-width="2" stroke-linecap="round" stroke-linejoin="round"/>
</g>
<defs>
<clipPath id="clip0_183_46">
<rect width="20" height="20" fill="white"/>
</clipPath>
</defs>
</svg>
