<svg width="20" height="20" viewBox="0 0 20 20" fill="none" xmlns="http://www.w3.org/2000/svg">
<path d="M0 0V20H20V0H0ZM1.81818 1.81818H18.1818V18.1818H1.81818V1.81818ZM9.91636 3.63636C6.35455 3.63636 3.63636 6.34091 3.63636 9.89546C3.63636 12.7436 5.42455 15.1818 7.98455 16.0391C8.31636 16.0973 8.43182 15.8936 8.43182 15.7282C8.43182 15.57 8.42545 14.69 8.42545 14.1491C8.42545 14.1491 6.62091 14.5382 6.24636 13.3845C6.24636 13.3845 5.95273 12.6409 5.53455 12.4464C5.53455 12.4464 4.95 12.0436 5.57727 12.0509C5.57727 12.0509 6.21273 12.1018 6.56636 12.7145C7.12818 13.71 8.07091 13.42 8.43909 13.2545C8.49636 12.8436 8.66364 12.5545 8.85091 12.39C7.41545 12.2318 5.96545 12.0227 5.96545 9.55636C5.96545 8.84909 6.16091 8.49636 6.57182 8.04182C6.50636 7.87545 6.28364 7.18364 6.63727 6.29636C7.17818 6.13 8.41091 6.98818 8.41091 6.98818C8.93731 6.84727 9.47962 6.77455 10.0245 6.77182C10.5704 6.77462 11.1137 6.84764 11.6409 6.98909C11.6409 6.98909 12.8736 6.13091 13.4136 6.29636C13.7673 7.19091 13.5427 7.87636 13.4782 8.04182C13.8891 8.49636 14.1418 8.85 14.1418 9.55636C14.1418 12.0364 12.6273 12.2318 11.1927 12.39C11.4309 12.5918 11.6336 12.9736 11.6336 13.5791C11.6336 14.4455 11.6264 15.5209 11.6264 15.73C11.6264 15.8955 11.7418 16.0964 12.0664 16.0391C14.6255 15.1809 16.3636 12.7436 16.3636 9.89546C16.3636 6.34091 13.4791 3.63636 9.91636 3.63636ZM5.96636 12.26C5.91545 12.2455 5.87182 12.2545 5.85727 12.2836C5.84273 12.3127 5.86364 12.3536 5.91455 12.3836C5.95818 12.4045 6.00818 12.3982 6.02273 12.3618C6.03727 12.3327 6.01727 12.2891 5.96636 12.26ZM6.19636 12.4755C6.17212 12.4688 6.1503 12.4739 6.13091 12.4909C6.09455 12.52 6.10182 12.5773 6.14545 12.6273C6.18909 12.6636 6.24545 12.6855 6.28182 12.6491C6.31818 12.62 6.31182 12.5636 6.26818 12.5127C6.24735 12.4951 6.2228 12.4823 6.19636 12.4755ZM6.46636 12.8091C6.45387 12.8047 6.44057 12.803 6.42738 12.8043C6.41419 12.8055 6.40143 12.8097 6.39 12.8164C6.34636 12.8455 6.34636 12.9118 6.39 12.9691C6.43364 13.0264 6.49909 13.0545 6.53545 13.0255C6.57818 12.9964 6.57818 12.9236 6.53545 12.8673C6.5197 12.8406 6.49533 12.8201 6.46636 12.8091ZM6.76182 13.1691C6.7478 13.167 6.73347 13.1686 6.72025 13.1737C6.70702 13.1788 6.69534 13.1872 6.68636 13.1982C6.65091 13.2345 6.66546 13.3045 6.72273 13.3555C6.78 13.4136 6.85091 13.4227 6.88727 13.3791C6.92364 13.35 6.90273 13.27 6.85182 13.2191C6.82701 13.1939 6.79633 13.1766 6.76182 13.1691ZM7.25636 13.4573C7.19273 13.4427 7.11364 13.4627 7.09909 13.5136C7.08455 13.5645 7.13546 13.6236 7.20727 13.6382C7.27091 13.6673 7.35091 13.6364 7.36545 13.5864C7.38727 13.5364 7.33546 13.4791 7.25636 13.4573ZM8.22909 13.48C8.15818 13.4945 8.10727 13.5455 8.11455 13.6027C8.12182 13.6527 8.19364 13.6809 8.26545 13.6664C8.34455 13.6518 8.39545 13.6027 8.38091 13.5509C8.37364 13.5 8.30273 13.4718 8.23 13.48H8.22909ZM7.75364 13.5373C7.67364 13.5373 7.61727 13.58 7.61727 13.6309C7.61727 13.6882 7.67455 13.7327 7.76091 13.7255C7.84091 13.7255 7.89727 13.6818 7.89727 13.6309C7.89727 13.5727 7.82636 13.53 7.75364 13.5373Z" fill="black"/>
</svg>
