<svg width="22" height="22" viewBox="0 0 22 22" fill="none" xmlns="http://www.w3.org/2000/svg">
<path d="M19.3333 1H2.66667C1.74619 1 1 1.74619 1 2.66667V19.3333C1 20.2538 1.74619 21 2.66667 21H19.3333C20.2538 21 21 20.2538 21 19.3333V2.66667C21 1.74619 20.2538 1 19.3333 1Z" stroke="black" stroke-width="2" stroke-linejoin="round"/>
<path d="M11 6H9.33333C8.8913 6 8.46738 6.17559 8.15482 6.48816C7.84226 6.80072 7.66666 7.22464 7.66666 7.66667C7.66666 8.10869 7.84226 8.53262 8.15482 8.84518C8.46738 9.15774 8.8913 9.33333 9.33333 9.33333M11 6V9.33333M11 6H12.6667C13.1087 6 13.5326 6.17559 13.8452 6.48816C14.1577 6.80072 14.3333 7.22464 14.3333 7.66667C14.3333 8.10869 14.1577 8.53262 13.8452 8.84518C13.5326 9.15774 13.1087 9.33333 12.6667 9.33333H11M11 9.33333H9.33333M11 9.33333V12.6667M9.33333 9.33333C8.8913 9.33333 8.46738 9.50893 8.15482 9.82149C7.84226 10.134 7.66666 10.558 7.66666 11C7.66666 11.442 7.84226 11.866 8.15482 12.1785C8.46738 12.4911 8.8913 12.6667 9.33333 12.6667M11 12.6667H9.33333M11 12.6667V14.3333C11 14.7754 10.8244 15.1993 10.5118 15.5118C10.1993 15.8244 9.77536 16 9.33333 16C8.8913 16 8.46738 15.8244 8.15482 15.5118C7.84226 15.1993 7.66666 14.7754 7.66666 14.3333C7.66666 13.8913 7.84226 13.4674 8.15482 13.1548C8.46738 12.8423 8.8913 12.6667 9.33333 12.6667" stroke="black" stroke-width="2" stroke-linejoin="round"/>
<path d="M11 10.9999C11 10.5579 11.1756 10.134 11.4882 9.82141C11.8007 9.50885 12.2246 9.33325 12.6667 9.33325C13.1087 9.33325 13.5326 9.50885 13.8452 9.82141C14.1577 10.134 14.3333 10.5579 14.3333 10.9999C14.3333 11.4419 14.1577 11.8659 13.8452 12.1784C13.5326 12.491 13.1087 12.6666 12.6667 12.6666C12.2246 12.6666 11.8007 12.491 11.4882 12.1784C11.1756 11.8659 11 11.4419 11 10.9999Z" stroke="black" stroke-width="2" stroke-linejoin="round"/>
</svg>
