<svg width="20" height="16" viewBox="0 0 20 16" fill="none" xmlns="http://www.w3.org/2000/svg">
<path fill-rule="evenodd" clip-rule="evenodd" d="M3 2.28571H17C17.2652 2.28571 17.5196 2.40612 17.7071 2.62045C17.8946 2.83478 18 3.12547 18 3.42857V12.5714C18 12.8745 17.8946 13.1652 17.7071 13.3796C17.5196 13.5939 17.2652 13.7143 17 13.7143H3C2.73478 13.7143 2.48043 13.5939 2.29289 13.3796C2.10536 13.1652 2 12.8745 2 12.5714V3.42857C2 3.12547 2.10536 2.83478 2.29289 2.62045C2.48043 2.40612 2.73478 2.28571 3 2.28571ZM0 3.42857C0 2.51926 0.316071 1.64719 0.87868 1.00421C1.44129 0.361224 2.20435 0 3 0H17C17.7956 0 18.5587 0.361224 19.1213 1.00421C19.6839 1.64719 20 2.51926 20 3.42857V12.5714C20 13.4807 19.6839 14.3528 19.1213 14.9958C18.5587 15.6388 17.7956 16 17 16H3C2.20435 16 1.44129 15.6388 0.87868 14.9958C0.316071 14.3528 0 13.4807 0 12.5714V3.42857ZM8 4.57143L12 8L8 11.4286V4.57143Z" fill="black"/>
</svg>
